<svg width="1067" height="742" viewBox="110 30 1067 742" fill="none" xmlns="http://www.w3.org/2000/svg"><path d="M699.476 55.3472C702.932 57.8167 706.241 60.3877 709.433 63.191C753.36 101.022 825.453 117.36 881.315 125.332C882.432 125.497 883.548 125.662 884.698 125.832C917.988 130.593 954.261 130.976 987.394 124.753C998.101 123.207 1011.9 122.318 1021.32 128.332C1026.01 132.522 1029.05 136.172 1029.59 142.597C1029.98 158.061 1025.3 171.764 1016.32 184.332C1007.84 193.186 990.985 194.007 979.462 194.438C976.483 194.495 973.506 194.522 970.526 194.535C969.425 194.54 968.323 194.546 967.188 194.552C964.864 194.561 962.539 194.568 960.215 194.572C956.748 194.581 953.282 194.612 949.815 194.644C925.321 194.76 898.407 193.851 876.108 182.66C872.546 180.966 869.174 180.088 865.315 179.332C867.615 183.738 870.692 186.721 874.378 189.957C892.177 206.063 902.341 223.775 911.364 245.685C916.541 258.241 922.621 268.841 931.315 279.332C938.444 288.288 936.602 301.438 936.833 312.378C936.867 313.585 936.901 314.792 936.937 316.035C936.974 317.669 936.974 317.669 937.013 319.336C937.318 322.353 938.046 324.594 939.315 327.332C940.175 327.351 941.034 327.371 941.92 327.392C997.227 328.728 1045.8 338.678 1089.32 375.332C1089.9 375.815 1090.48 376.298 1091.08 376.796C1103.37 386.979 1114.41 397.769 1123.99 410.56C1124.85 411.71 1125.72 412.857 1126.59 413.998C1151.89 447.058 1167.54 491.777 1167.45 533.546C1167.45 534.483 1167.45 535.42 1167.45 536.386C1167.45 538.348 1167.45 540.31 1167.45 542.272C1167.44 545.285 1167.45 548.297 1167.45 551.31C1167.45 553.222 1167.45 555.134 1167.45 557.046C1167.45 558.399 1167.45 558.399 1167.45 559.78C1167.45 560.612 1167.45 561.443 1167.44 562.3C1167.44 563.399 1167.44 563.399 1167.44 564.519C1167.32 566.332 1167.32 566.332 1166.32 568.332C1166.12 570.166 1165.93 572.001 1165.77 573.839C1161.13 625.721 1132.53 675.461 1093.71 709.625C1090.96 711.923 1088.16 714.14 1085.32 716.332C1084.76 716.765 1084.2 717.198 1083.63 717.644C1074.33 724.833 1064.74 730.921 1054.32 736.332C1053.61 736.705 1052.9 737.079 1052.18 737.464C1025.94 751.23 995.922 758.383 966.304 758.535C965.381 758.542 964.458 758.549 963.507 758.556C960.547 758.573 957.588 758.58 954.628 758.582C953.618 758.582 952.608 758.583 951.567 758.584C936.946 758.568 922.683 758.317 908.315 755.332C907.07 755.082 907.07 755.082 905.799 754.828C854.442 744.208 806.843 711.14 778.041 667.396C775.325 663.12 772.799 658.745 770.315 654.332C769.806 653.446 769.806 653.446 769.286 652.542C749.202 617.522 739.368 575.649 741.315 535.332C741.357 534.472 741.398 533.613 741.44 532.728C744.112 481.758 762.597 435.164 797.288 397.546C799.088 395.58 800.796 393.566 802.503 391.519C826.047 364.681 859.033 345.926 893.065 336.082C893.917 335.835 894.768 335.589 895.644 335.335C900.114 334.087 904.566 333.062 909.137 332.251C910.111 332.077 911.086 331.903 912.09 331.724C912.824 331.594 913.559 331.465 914.315 331.332C912.621 324.39 910.917 317.451 909.202 310.515C908.405 307.292 907.612 304.067 906.825 300.842C900.372 267.343 900.372 267.343 884.128 238.394C883.142 237.377 882.159 236.357 881.179 235.336C880.694 234.834 880.208 234.333 879.709 233.816C877.618 231.588 875.722 229.219 873.815 226.832C870.616 222.855 867.29 219.065 863.815 215.332C859.475 210.665 855.395 205.843 851.386 200.886C849.428 198.471 847.455 196.075 845.44 193.707C844.64 192.759 844.64 192.759 843.823 191.793C842.269 190.076 842.269 190.076 839.315 189.332C838.893 190.556 838.47 191.78 838.034 193.041C836.438 197.655 834.838 202.267 833.236 206.879C832.549 208.862 831.862 210.845 831.177 212.828C819.23 247.402 819.23 247.402 813.19 253.894C812.228 254.958 811.266 256.021 810.304 257.086C809.812 257.615 809.321 258.145 808.814 258.691C806.77 260.929 804.825 263.243 802.872 265.56C798.949 270.212 794.95 274.759 790.762 279.175C778.266 292.38 768.077 307.225 760.878 323.957C756.886 331.945 747.236 334.9 739.52 338.456C724.07 345.599 712.409 353.111 701.315 366.332C700.084 367.738 698.849 369.141 697.612 370.543C695.777 372.637 693.985 374.74 692.233 376.906C685.083 385.638 676.448 388.602 665.849 391.458C661.662 392.645 658.92 393.784 656.315 397.332C654.191 402.295 656.501 407.137 658.003 412.019C660.488 420.578 662.3 429.082 663.628 437.894C663.787 438.938 663.946 439.983 664.109 441.059C671.51 492.485 661.851 544.642 637.315 590.332C636.991 590.937 636.666 591.542 636.332 592.166C632.07 600.03 627.317 607.43 622.101 614.687C620.189 617.264 620.189 617.264 619.315 620.332C619.872 620.393 620.429 620.455 621.003 620.519C623.617 621.438 624.853 622.771 626.726 624.757C632.939 630.91 640.403 635.932 647.398 641.144C651.412 644.154 655.37 647.233 659.315 650.332C657.954 655.829 655.476 658.785 651.628 662.707C650.533 663.854 649.44 665.003 648.347 666.152C647.821 666.7 647.295 667.248 646.753 667.813C644.982 669.684 643.298 671.62 641.628 673.582C635.362 680.784 628.565 687.138 621.108 693.093C619.319 694.528 617.548 695.987 615.804 697.476C565.319 740.384 495.622 760.86 430.315 762.332C429.385 762.354 428.455 762.375 427.496 762.398C354.875 763.838 282.552 746.554 225.315 700.332C224.72 699.853 224.124 699.374 223.51 698.881C209.117 687.217 195.601 674.037 184.315 659.332C183.443 658.246 182.568 657.163 181.69 656.082C150.64 617.612 132.914 572.619 123.378 524.394C123.178 523.396 122.979 522.398 122.773 521.369C119.838 505.618 120.101 489.61 120.075 473.648C120.066 469.999 120.034 466.351 120.003 462.703C119.759 408.657 134.553 355.106 165.315 310.332C165.706 309.759 166.096 309.186 166.498 308.596C172.578 299.707 179.179 291.397 186.315 283.332C186.974 282.585 187.633 281.839 188.312 281.07C199.988 267.958 212.273 254.933 226.315 244.332C227.312 243.541 228.308 242.751 229.335 241.937C242.207 231.755 255.851 223.068 270.315 215.332C271.236 214.833 271.236 214.833 272.175 214.325C342.913 176.33 435.152 170.572 511.561 193.545C514.486 194.453 517.403 195.385 520.315 196.332C521.232 196.629 522.149 196.927 523.094 197.233C564.084 210.782 600.118 233.704 631.315 263.332C632.557 264.509 632.557 264.509 633.823 265.711C638.598 270.36 642.887 275.274 647.026 280.496C648.604 282.451 650.239 284.36 651.917 286.23C653.166 287.642 653.166 287.642 654.44 289.082C655.206 289.922 655.972 290.763 656.761 291.628C658.315 294.332 658.315 294.332 658.585 297.75C656.731 302.982 653.382 304.877 648.878 307.894C647.15 309.104 645.423 310.316 643.698 311.531C642.81 312.15 641.923 312.769 641.008 313.407C635.837 317.103 630.893 321.096 625.929 325.064C625.22 325.624 624.511 326.184 623.78 326.761C623.158 327.259 622.535 327.756 621.893 328.269C620.315 329.332 620.315 329.332 618.315 329.332C618.705 329.94 619.094 330.548 619.495 331.175C621.064 333.634 622.628 336.096 624.19 338.56C624.958 339.769 625.728 340.975 626.5 342.181C631.223 349.562 635.799 356.981 639.94 364.707C640.455 365.661 640.455 365.661 640.979 366.635C643.315 371.075 643.315 371.075 643.315 373.332C656.287 370.146 656.287 370.146 667.065 362.582C668.329 360.414 668.329 360.414 669.128 358.328C672.807 349.267 678.975 344.479 686.538 338.543C689.536 336.156 692.462 333.693 695.378 331.207C709.062 319.568 723.003 308.234 737.12 297.125C745.343 290.631 753.037 283.697 760.386 276.23C762.301 274.346 764.279 272.583 766.315 270.832C767.65 269.667 768.984 268.5 770.315 267.332C771.266 266.519 771.266 266.519 772.236 265.69C778.303 260.13 781.313 253.994 784.565 246.519C785.12 245.28 785.677 244.041 786.235 242.804C787.668 239.613 789.079 236.414 790.486 233.212C791.799 230.235 793.134 227.268 794.468 224.3C799.381 213.341 804.202 202.341 809.003 191.332C809.425 190.364 809.848 189.396 810.283 188.399C810.862 187.066 810.862 187.066 811.452 185.707C811.79 184.931 812.127 184.155 812.474 183.355C813.159 181.708 813.752 180.023 814.315 178.332C813.043 178.185 811.771 178.038 810.46 177.886C791.627 175.55 773.849 170.55 756.315 163.332C755.63 163.051 754.944 162.771 754.238 162.482C735.463 154.709 718.026 144.449 700.667 133.961C693.291 129.505 686.658 125.663 678.315 123.332C664.011 119.122 651.953 107.384 641.315 97.3316C639.946 96.1383 638.571 94.9506 637.19 93.7691C628.761 86.3787 620.307 78.8823 618.315 67.3316C618.221 59.9318 619.657 55.2991 624.749 49.7769C644.166 31.0581 679.775 42.7814 699.476 55.3472ZM630.128 54.8316C626.708 59.5487 625.706 62.3418 626.315 68.3316C634.156 83.744 652.756 100.552 668.315 108.332C676.452 109.56 682.665 105.808 689.315 101.332C691.948 98.5606 692.765 96.6403 692.815 92.8316C692.381 80.9726 685.091 71.5215 678.315 62.3316C677.753 61.5208 677.191 60.71 676.612 59.8746C672.405 53.9064 668.012 50.1924 660.632 48.6519C650.797 47.2919 637.789 47.554 630.128 54.8316ZM266.315 294.332C265.307 295.136 264.299 295.94 263.261 296.769C249.94 307.611 237.749 319.785 227.567 333.631C226.318 335.328 225.047 337.006 223.772 338.683C194.888 377.287 181.108 426.522 181.065 474.332C181.065 475.026 181.064 475.72 181.063 476.436C181.141 527.206 195.728 583.606 230.315 622.332C231.079 623.191 231.842 624.051 232.628 624.937C234.15 626.636 235.679 628.328 237.218 630.011C239.033 632.019 240.769 634.067 242.503 636.144C281.688 680.798 342.147 702.771 400.111 706.816C408.528 707.341 416.884 707.739 425.315 707.332C426.167 707.291 427.018 707.249 427.896 707.207C488.876 703.891 542.296 678.986 586.315 637.332C586.996 636.694 587.677 636.055 588.378 635.398C592.987 630.949 597.009 626.042 600.978 621.02C601.916 619.835 602.861 618.656 603.81 617.479C612.494 606.691 619.756 595.524 626.315 583.332C626.685 582.653 627.055 581.974 627.436 581.274C655.636 529.045 660.55 467.025 644.315 410.332C630.737 365.18 603.171 322.93 565.315 294.332C564.694 293.855 564.072 293.379 563.432 292.889C486.685 234.386 382.024 228.005 266.315 294.332ZM847.315 424.332C846.815 424.799 846.316 425.266 845.8 425.748C816.833 452.972 797.692 492.876 796.184 532.823C795.828 549.706 795.652 566.528 799.94 582.957C800.208 583.991 800.475 585.026 800.75 586.093C808.382 614.831 821.705 639.801 842.315 661.332C843.429 662.54 843.429 662.54 844.565 663.773C869.102 689.56 907.045 706.08 942.513 707.456C988.789 708.489 1030.15 696.619 1064.32 664.332C1065.11 663.597 1065.91 662.862 1066.74 662.105C1095.59 634.632 1112.19 592.773 1113.32 553.332C1113.34 552.659 1113.36 551.986 1113.38 551.294C1114.61 508.406 1101.05 465.996 1071.32 434.457C1070.66 433.755 1070 433.054 1069.32 432.332C1068.16 430.982 1067.02 429.627 1065.88 428.269C1044.52 404.006 1012.8 388.124 981.315 382.332C980.112 382.107 978.908 381.883 977.667 381.652C929.843 374.079 881.952 391.471 847.315 424.332Z" fill="#FFFFFF"></path></svg>