<svg width="3961" height="938" viewBox="0 0 3961 938" fill="none" xmlns="http://www.w3.org/2000/svg">
<path d="M699.476 55.3472C702.932 57.8167 706.241 60.3877 709.433 63.191C753.36 101.022 825.453 117.36 881.315 125.332C882.432 125.497 883.548 125.662 884.698 125.832C917.988 130.593 954.261 130.976 987.394 124.753C998.101 123.207 1011.9 122.318 1021.32 128.332C1026.01 132.522 1029.05 136.172 1029.59 142.597C1029.98 158.061 1025.3 171.764 1016.32 184.332C1007.84 193.186 990.985 194.007 979.462 194.438C976.483 194.495 973.506 194.522 970.526 194.535C969.425 194.54 968.323 194.546 967.188 194.552C964.864 194.561 962.539 194.568 960.215 194.572C956.748 194.581 953.282 194.612 949.815 194.644C925.321 194.76 898.407 193.851 876.108 182.66C872.546 180.966 869.174 180.088 865.315 179.332C867.615 183.738 870.692 186.721 874.378 189.957C892.177 206.063 902.341 223.775 911.364 245.685C916.541 258.241 922.621 268.841 931.315 279.332C938.444 288.288 936.602 301.438 936.833 312.378C936.867 313.585 936.901 314.792 936.937 316.035C936.974 317.669 936.974 317.669 937.013 319.336C937.318 322.353 938.046 324.594 939.315 327.332C940.175 327.351 941.034 327.371 941.92 327.392C997.227 328.728 1045.8 338.678 1089.32 375.332C1089.9 375.815 1090.48 376.298 1091.08 376.796C1103.37 386.979 1114.41 397.769 1123.99 410.56C1124.85 411.71 1125.72 412.857 1126.59 413.998C1151.89 447.058 1167.54 491.777 1167.45 533.546C1167.45 534.483 1167.45 535.42 1167.45 536.386C1167.45 538.348 1167.45 540.31 1167.45 542.272C1167.44 545.285 1167.45 548.297 1167.45 551.31C1167.45 553.222 1167.45 555.134 1167.45 557.046C1167.45 558.399 1167.45 558.399 1167.45 559.78C1167.45 560.612 1167.45 561.443 1167.44 562.3C1167.44 563.399 1167.44 563.399 1167.44 564.519C1167.32 566.332 1167.32 566.332 1166.32 568.332C1166.12 570.166 1165.93 572.001 1165.77 573.839C1161.13 625.721 1132.53 675.461 1093.71 709.625C1090.96 711.923 1088.16 714.14 1085.32 716.332C1084.76 716.765 1084.2 717.198 1083.63 717.644C1074.33 724.833 1064.74 730.921 1054.32 736.332C1053.61 736.705 1052.9 737.079 1052.18 737.464C1025.94 751.23 995.922 758.383 966.304 758.535C965.381 758.542 964.458 758.549 963.507 758.556C960.547 758.573 957.588 758.58 954.628 758.582C953.618 758.582 952.608 758.583 951.567 758.584C936.946 758.568 922.683 758.317 908.315 755.332C907.07 755.082 907.07 755.082 905.799 754.828C854.442 744.208 806.843 711.14 778.041 667.396C775.325 663.12 772.799 658.745 770.315 654.332C769.806 653.446 769.806 653.446 769.286 652.542C749.202 617.522 739.368 575.649 741.315 535.332C741.357 534.472 741.398 533.613 741.44 532.728C744.112 481.758 762.597 435.164 797.288 397.546C799.088 395.58 800.796 393.566 802.503 391.519C826.047 364.681 859.033 345.926 893.065 336.082C893.917 335.835 894.768 335.589 895.644 335.335C900.114 334.087 904.566 333.062 909.137 332.251C910.111 332.077 911.086 331.903 912.09 331.724C912.824 331.594 913.559 331.465 914.315 331.332C912.621 324.39 910.917 317.451 909.202 310.515C908.405 307.292 907.612 304.067 906.825 300.842C900.372 267.343 900.372 267.343 884.128 238.394C883.142 237.377 882.159 236.357 881.179 235.336C880.694 234.834 880.208 234.333 879.709 233.816C877.618 231.588 875.722 229.219 873.815 226.832C870.616 222.855 867.29 219.065 863.815 215.332C859.475 210.665 855.395 205.843 851.386 200.886C849.428 198.471 847.455 196.075 845.44 193.707C844.64 192.759 844.64 192.759 843.823 191.793C842.269 190.076 842.269 190.076 839.315 189.332C838.893 190.556 838.47 191.78 838.034 193.041C836.438 197.655 834.838 202.267 833.236 206.879C832.549 208.862 831.862 210.845 831.177 212.828C819.23 247.402 819.23 247.402 813.19 253.894C812.228 254.958 811.266 256.021 810.304 257.086C809.812 257.615 809.321 258.145 808.814 258.691C806.77 260.929 804.825 263.243 802.872 265.56C798.949 270.212 794.95 274.759 790.762 279.175C778.266 292.38 768.077 307.225 760.878 323.957C756.886 331.945 747.236 334.9 739.52 338.456C724.07 345.599 712.409 353.111 701.315 366.332C700.084 367.738 698.849 369.141 697.612 370.543C695.777 372.637 693.985 374.74 692.233 376.906C685.083 385.638 676.448 388.602 665.849 391.458C661.662 392.645 658.92 393.784 656.315 397.332C654.191 402.295 656.501 407.137 658.003 412.019C660.488 420.578 662.3 429.082 663.628 437.894C663.787 438.938 663.946 439.983 664.109 441.059C671.51 492.485 661.851 544.642 637.315 590.332C636.991 590.937 636.666 591.542 636.332 592.166C632.07 600.03 627.317 607.43 622.101 614.687C620.189 617.264 620.189 617.264 619.315 620.332C619.872 620.393 620.429 620.455 621.003 620.519C623.617 621.438 624.853 622.771 626.726 624.757C632.939 630.91 640.403 635.932 647.398 641.144C651.412 644.154 655.37 647.233 659.315 650.332C657.954 655.829 655.476 658.785 651.628 662.707C650.533 663.854 649.44 665.003 648.347 666.152C647.821 666.7 647.295 667.248 646.753 667.813C644.982 669.684 643.298 671.62 641.628 673.582C635.362 680.784 628.565 687.138 621.108 693.093C619.319 694.528 617.548 695.987 615.804 697.476C565.319 740.384 495.622 760.86 430.315 762.332C429.385 762.354 428.455 762.375 427.496 762.398C354.875 763.838 282.552 746.554 225.315 700.332C224.72 699.853 224.124 699.374 223.51 698.881C209.117 687.217 195.601 674.037 184.315 659.332C183.443 658.246 182.568 657.163 181.69 656.082C150.64 617.612 132.914 572.619 123.378 524.394C123.178 523.396 122.979 522.398 122.773 521.369C119.838 505.618 120.101 489.61 120.075 473.648C120.066 469.999 120.034 466.351 120.003 462.703C119.759 408.657 134.553 355.106 165.315 310.332C165.706 309.759 166.096 309.186 166.498 308.596C172.578 299.707 179.179 291.397 186.315 283.332C186.974 282.585 187.633 281.839 188.312 281.07C199.988 267.958 212.273 254.933 226.315 244.332C227.312 243.541 228.308 242.751 229.335 241.937C242.207 231.755 255.851 223.068 270.315 215.332C271.236 214.833 271.236 214.833 272.175 214.325C342.913 176.33 435.152 170.572 511.561 193.545C514.486 194.453 517.403 195.385 520.315 196.332C521.232 196.629 522.149 196.927 523.094 197.233C564.084 210.782 600.118 233.704 631.315 263.332C632.557 264.509 632.557 264.509 633.823 265.711C638.598 270.36 642.887 275.274 647.026 280.496C648.604 282.451 650.239 284.36 651.917 286.23C653.166 287.642 653.166 287.642 654.44 289.082C655.206 289.922 655.972 290.763 656.761 291.628C658.315 294.332 658.315 294.332 658.585 297.75C656.731 302.982 653.382 304.877 648.878 307.894C647.15 309.104 645.423 310.316 643.698 311.531C642.81 312.15 641.923 312.769 641.008 313.407C635.837 317.103 630.893 321.096 625.929 325.064C625.22 325.624 624.511 326.184 623.78 326.761C623.158 327.259 622.535 327.756 621.893 328.269C620.315 329.332 620.315 329.332 618.315 329.332C618.705 329.94 619.094 330.548 619.495 331.175C621.064 333.634 622.628 336.096 624.19 338.56C624.958 339.769 625.728 340.975 626.5 342.181C631.223 349.562 635.799 356.981 639.94 364.707C640.455 365.661 640.455 365.661 640.979 366.635C643.315 371.075 643.315 371.075 643.315 373.332C656.287 370.146 656.287 370.146 667.065 362.582C668.329 360.414 668.329 360.414 669.128 358.328C672.807 349.267 678.975 344.479 686.538 338.543C689.536 336.156 692.462 333.693 695.378 331.207C709.062 319.568 723.003 308.234 737.12 297.125C745.343 290.631 753.037 283.697 760.386 276.23C762.301 274.346 764.279 272.583 766.315 270.832C767.65 269.667 768.984 268.5 770.315 267.332C771.266 266.519 771.266 266.519 772.236 265.69C778.303 260.13 781.313 253.994 784.565 246.519C785.12 245.28 785.677 244.041 786.235 242.804C787.668 239.613 789.079 236.414 790.486 233.212C791.799 230.235 793.134 227.268 794.468 224.3C799.381 213.341 804.202 202.341 809.003 191.332C809.425 190.364 809.848 189.396 810.283 188.399C810.862 187.066 810.862 187.066 811.452 185.707C811.79 184.931 812.127 184.155 812.474 183.355C813.159 181.708 813.752 180.023 814.315 178.332C813.043 178.185 811.771 178.038 810.46 177.886C791.627 175.55 773.849 170.55 756.315 163.332C755.63 163.051 754.944 162.771 754.238 162.482C735.463 154.709 718.026 144.449 700.667 133.961C693.291 129.505 686.658 125.663 678.315 123.332C664.011 119.122 651.953 107.384 641.315 97.3316C639.946 96.1383 638.571 94.9506 637.19 93.7691C628.761 86.3787 620.307 78.8823 618.315 67.3316C618.221 59.9318 619.657 55.2991 624.749 49.7769C644.166 31.0581 679.775 42.7814 699.476 55.3472ZM630.128 54.8316C626.708 59.5487 625.706 62.3418 626.315 68.3316C634.156 83.744 652.756 100.552 668.315 108.332C676.452 109.56 682.665 105.808 689.315 101.332C691.948 98.5606 692.765 96.6403 692.815 92.8316C692.381 80.9726 685.091 71.5215 678.315 62.3316C677.753 61.5208 677.191 60.71 676.612 59.8746C672.405 53.9064 668.012 50.1924 660.632 48.6519C650.797 47.2919 637.789 47.554 630.128 54.8316ZM266.315 294.332C265.307 295.136 264.299 295.94 263.261 296.769C249.94 307.611 237.749 319.785 227.567 333.631C226.318 335.328 225.047 337.006 223.772 338.683C194.888 377.287 181.108 426.522 181.065 474.332C181.065 475.026 181.064 475.72 181.063 476.436C181.141 527.206 195.728 583.606 230.315 622.332C231.079 623.191 231.842 624.051 232.628 624.937C234.15 626.636 235.679 628.328 237.218 630.011C239.033 632.019 240.769 634.067 242.503 636.144C281.688 680.798 342.147 702.771 400.111 706.816C408.528 707.341 416.884 707.739 425.315 707.332C426.167 707.291 427.018 707.249 427.896 707.207C488.876 703.891 542.296 678.986 586.315 637.332C586.996 636.694 587.677 636.055 588.378 635.398C592.987 630.949 597.009 626.042 600.978 621.02C601.916 619.835 602.861 618.656 603.81 617.479C612.494 606.691 619.756 595.524 626.315 583.332C626.685 582.653 627.055 581.974 627.436 581.274C655.636 529.045 660.55 467.025 644.315 410.332C630.737 365.18 603.171 322.93 565.315 294.332C564.694 293.855 564.072 293.379 563.432 292.889C486.685 234.386 382.024 228.005 266.315 294.332ZM847.315 424.332C846.815 424.799 846.316 425.266 845.8 425.748C816.833 452.972 797.692 492.876 796.184 532.823C795.828 549.706 795.652 566.528 799.94 582.957C800.208 583.991 800.475 585.026 800.75 586.093C808.382 614.831 821.705 639.801 842.315 661.332C843.429 662.54 843.429 662.54 844.565 663.773C869.102 689.56 907.045 706.08 942.513 707.456C988.789 708.489 1030.15 696.619 1064.32 664.332C1065.11 663.597 1065.91 662.862 1066.74 662.105C1095.59 634.632 1112.19 592.773 1113.32 553.332C1113.34 552.659 1113.36 551.986 1113.38 551.294C1114.61 508.406 1101.05 465.996 1071.32 434.457C1070.66 433.755 1070 433.054 1069.32 432.332C1068.16 430.982 1067.02 429.627 1065.88 428.269C1044.52 404.006 1012.8 388.124 981.315 382.332C980.112 382.107 978.908 381.883 977.667 381.652C929.843 374.079 881.952 391.471 847.315 424.332Z" fill="#6db64a"></path>
<path d="M1952.09 181.202C1953.11 181.199 1954.13 181.196 1955.18 181.193C1956.29 181.195 1957.39 181.197 1958.53 181.199C1959.66 181.198 1960.79 181.197 1961.95 181.196C1964.34 181.195 1966.73 181.197 1969.13 181.201C1972.8 181.207 1976.47 181.201 1980.15 181.195C1982.46 181.196 1984.78 181.197 1987.1 181.199C1988.76 181.196 1988.76 181.196 1990.45 181.193C1991.47 181.196 1992.49 181.199 1993.54 181.202C1994.89 181.203 1994.89 181.203 1996.27 181.205C1998.32 181.332 1998.32 181.332 1999.32 182.332C1999.43 185.201 1999.47 188.047 1999.47 190.918C1999.48 192.285 1999.48 192.285 1999.49 193.68C1999.5 196.758 1999.51 199.837 1999.52 202.916C1999.53 205.113 1999.54 207.31 1999.55 209.507C1999.58 215.493 1999.6 221.478 1999.62 227.463C1999.64 233.711 1999.67 239.958 1999.69 246.205C1999.74 256.698 1999.78 267.19 1999.82 277.683C1999.86 288.492 1999.9 299.301 1999.94 310.111C1999.95 310.776 1999.95 311.442 1999.95 312.128C1999.97 315.468 1999.98 318.809 1999.99 322.149C2000.11 349.876 2000.21 377.604 2000.32 405.332C2000.74 404.875 2001.17 404.419 2001.61 403.949C2003.57 401.856 2005.53 399.764 2007.49 397.671C2008.16 396.954 2008.83 396.236 2009.52 395.497C2017.99 386.463 2026.5 377.929 2036.32 370.332C2036.87 369.902 2037.42 369.473 2037.99 369.031C2065.74 347.64 2095.87 335.904 2130.32 330.332C2131.55 330.13 2131.55 330.13 2132.82 329.925C2176.1 323.277 2220.83 330.635 2259.32 351.332C2260.2 351.797 2260.2 351.797 2261.11 352.272C2286.19 365.489 2309 386.005 2326.32 408.332C2327.5 409.786 2327.5 409.786 2328.7 411.269C2356.94 446.678 2370.17 489.495 2372.32 534.332C2372.38 535.574 2372.44 536.817 2372.5 538.097C2373.72 596.378 2353.8 650.939 2313.72 693.148C2305.81 701.332 2297.5 708.622 2288.32 715.332C2287.65 715.823 2286.98 716.313 2286.29 716.819C2269.22 729.306 2251.67 740.297 2231.44 746.894C2230.27 747.278 2229.11 747.662 2227.9 748.058C2213.06 752.84 2197.82 756.49 2182.32 758.332C2181.44 758.442 2180.57 758.553 2179.67 758.667C2133.09 763.592 2085.24 750.875 2047.32 723.332C2046.34 722.637 2045.36 721.942 2044.35 721.226C2036.83 715.758 2030.03 709.739 2023.32 703.332C2022.58 702.642 2021.85 701.952 2021.1 701.242C2015.69 695.999 2011.02 690.213 2006.32 684.332C2004.68 682.302 2003.02 680.305 2001.32 678.332C2000.99 678.332 2000.66 678.332 2000.32 678.332C2000.31 679.179 2000.3 680.027 2000.3 680.9C2000.24 688.875 2000.17 696.851 2000.08 704.826C2000.04 708.927 2000 713.027 1999.97 717.128C1999.94 721.083 1999.9 725.038 1999.85 728.993C1999.84 730.504 1999.82 732.016 1999.82 733.527C1999.81 735.639 1999.78 737.75 1999.75 739.862C1999.73 741.668 1999.73 741.668 1999.71 743.51C1999.52 744.906 1999.52 744.906 1999.32 746.332C1996.14 748.451 1995.35 748.583 1991.71 748.59C1990.78 748.597 1989.85 748.603 1988.89 748.609C1987.38 748.603 1987.38 748.603 1985.85 748.597C1984.3 748.6 1984.3 748.6 1982.72 748.603C1980.54 748.604 1978.36 748.601 1976.17 748.592C1972.83 748.582 1969.48 748.592 1966.14 748.605C1964.02 748.604 1961.9 748.601 1959.78 748.597C1958.78 748.601 1957.78 748.605 1956.74 748.609C1955.81 748.603 1954.88 748.597 1953.92 748.59C1953.1 748.589 1952.28 748.587 1951.44 748.586C1949.32 748.332 1949.32 748.332 1946.32 746.332C1946.02 743.249 1945.92 740.366 1945.94 737.28C1945.94 736.326 1945.94 735.372 1945.93 734.388C1945.92 731.154 1945.94 727.92 1945.95 724.686C1945.95 722.359 1945.94 720.031 1945.94 717.704C1945.93 711.955 1945.94 706.206 1945.95 700.457C1945.96 693.575 1945.96 686.692 1945.95 679.81C1945.95 667.106 1945.95 654.403 1945.97 641.7C1945.98 629.117 1945.99 616.533 1945.99 603.95C1945.99 603.168 1945.99 602.387 1945.99 601.582C1945.99 598.409 1945.99 595.237 1945.99 592.064C1945.99 563.132 1946.01 534.201 1946.03 505.269C1946.06 477.934 1946.07 450.599 1946.08 423.264C1946.08 422.422 1946.08 421.58 1946.08 420.712C1946.08 417.317 1946.08 413.922 1946.08 410.527C1946.08 408.836 1946.08 407.144 1946.08 405.452C1946.08 403.765 1946.08 402.077 1946.08 400.39C1946.08 373.546 1946.09 346.702 1946.11 319.857C1946.11 311.99 1946.11 304.123 1946.12 296.255C1946.12 279.705 1946.13 263.156 1946.14 246.606C1946.15 239.759 1946.16 232.911 1946.16 226.064C1946.16 219.806 1946.16 213.549 1946.17 207.291C1946.17 205.017 1946.17 202.742 1946.17 200.468C1946.17 197.397 1946.18 194.327 1946.18 191.257C1946.18 190.356 1946.18 189.454 1946.18 188.525C1946.21 181.207 1946.21 181.207 1952.09 181.202ZM2035.19 430.582C2008.9 460.395 1994.88 499.535 1994.94 539.082C1994.94 539.741 1994.94 540.401 1994.94 541.081C1995.12 588.302 2012.52 629.308 2044.94 663.332C2075.91 693.469 2117.12 708.013 2159.91 707.542C2204.12 706.465 2242.95 687.608 2273.87 656.789C2303.34 625.712 2319.62 581.751 2318.57 539.003C2316.64 494.881 2299.27 456.514 2269.32 424.332C2268.65 423.603 2267.99 422.875 2267.31 422.125C2256.2 410.409 2242.59 401.658 2228.32 394.332C2227.4 393.854 2227.4 393.854 2226.46 393.368C2162.18 360.33 2083.73 379.512 2035.19 430.582Z" fill="#6db64a"></path>
<path d="M2782.32 366.332C2782.87 366.733 2783.43 367.135 2784 367.549C2792.69 373.864 2800.56 380.923 2808.32 388.332C2808.97 388.934 2809.63 389.536 2810.3 390.156C2849.89 427.582 2866.78 485.584 2869.47 538.363C2869.5 539.353 2869.53 540.343 2869.55 541.363C2869.58 542.266 2869.61 543.169 2869.64 544.099C2869.53 544.836 2869.42 545.573 2869.32 546.332C2865.82 548.663 2864.46 548.579 2860.33 548.572C2858.45 548.576 2858.45 548.576 2856.52 548.58C2855.12 548.573 2853.71 548.566 2852.31 548.559C2850.82 548.558 2849.34 548.558 2847.85 548.56C2843.76 548.56 2839.67 548.548 2835.58 548.534C2831.17 548.522 2826.76 548.521 2822.35 548.518C2814.71 548.512 2807.06 548.499 2799.42 548.482C2788.37 548.457 2777.31 548.445 2766.26 548.436C2748.32 548.422 2730.38 548.4 2712.45 548.373C2711.37 548.371 2710.3 548.369 2709.19 548.368C2700.47 548.354 2691.76 548.34 2683.04 548.326C2675.42 548.314 2667.8 548.302 2660.19 548.291C2659.11 548.289 2658.04 548.287 2656.93 548.286C2639.07 548.258 2621.2 548.239 2603.33 548.225C2592.3 548.216 2581.27 548.2 2570.24 548.174C2562.68 548.158 2555.13 548.148 2547.58 548.144C2543.21 548.141 2538.85 548.135 2534.49 548.12C2530.5 548.107 2526.51 548.102 2522.52 548.105C2521.07 548.105 2519.62 548.101 2518.18 548.093C2516.22 548.083 2514.26 548.087 2512.3 548.091C2511.21 548.089 2510.12 548.087 2508.99 548.086C2506.09 548.138 2506.09 548.138 2503.32 550.332C2500.62 590.284 2519.38 630.885 2544.8 660.437C2569.25 687.978 2603.51 705.485 2640.32 708.332C2685.96 710.331 2730.57 699.666 2765.38 668.957C2767.03 667.424 2768.68 665.882 2770.32 664.332C2771.19 663.523 2772.06 662.715 2772.96 661.882C2782.6 652.66 2790.24 642.179 2797.42 630.968C2798.13 629.872 2798.84 628.776 2799.56 627.647C2800.97 625.462 2802.35 623.264 2803.71 621.054C2804.67 619.551 2804.67 619.551 2805.65 618.019C2806.5 616.664 2806.5 616.664 2807.36 615.281C2809.32 613.332 2809.32 613.332 2812.04 612.801C2816.32 613.494 2819.61 615.117 2823.42 617.128C2824.56 617.714 2824.56 617.714 2825.72 618.31C2827.31 619.135 2828.91 619.966 2830.5 620.802C2832.93 622.077 2835.37 623.331 2837.82 624.582C2839.37 625.388 2840.93 626.195 2842.48 627.003C2843.21 627.377 2843.93 627.75 2844.68 628.134C2848.43 630.115 2851.62 631.958 2854.32 635.332C2854.43 640.971 2851.24 645.513 2848.44 650.207C2847.95 651.039 2847.46 651.871 2846.95 652.728C2839.66 664.956 2831.64 676.558 2822.32 687.332C2821.62 688.136 2820.93 688.94 2820.21 689.769C2809.89 701.476 2799 712.206 2786.32 721.332C2785.7 721.777 2785.08 722.223 2784.44 722.682C2747.36 748.977 2703.18 758.8 2658.38 758.707C2656.9 758.706 2656.9 758.706 2655.39 758.705C2639.39 758.664 2624 757.771 2608.32 754.332C2607.32 754.117 2606.32 753.903 2605.3 753.682C2553.43 742.156 2511.47 710.746 2482.69 666.457C2481.2 664.099 2479.75 661.72 2478.32 659.332C2477.92 658.686 2477.53 658.04 2477.12 657.375C2448.66 610.257 2439.99 551.017 2451.32 497.332C2451.52 496.354 2451.72 495.377 2451.93 494.37C2460.89 453.042 2482.27 416.611 2511.32 386.332C2512.1 385.508 2512.88 384.684 2513.69 383.836C2578.84 316.822 2688.6 312.268 2782.32 366.332ZM2543.82 428.894C2528.42 446.523 2509.32 477.032 2509.32 501.332C2607.99 501.332 2706.66 501.332 2808.32 501.332C2808.32 495.327 2807.82 491.147 2806.32 485.519C2806.1 484.697 2805.88 483.874 2805.65 483.027C2801.97 469.901 2796.27 457.422 2788.32 446.332C2787.63 445.356 2786.95 444.38 2786.25 443.375C2775.61 428.799 2762.59 415.965 2747.32 406.332C2746.68 405.919 2746.04 405.506 2745.38 405.08C2720.63 389.18 2691.66 380.561 2662.32 379.332C2661.39 379.29 2660.47 379.249 2659.52 379.207C2614.8 378.218 2574.34 396.887 2543.82 428.894Z" fill="#6db64a"></path>
<path d="M1741.75 377.05C1751.1 385.602 1759.52 394.421 1767.17 404.531C1769.19 407.29 1769.19 407.29 1771.32 409.331C1771.33 408.127 1771.33 408.127 1771.34 406.897C1771.42 399.32 1771.51 391.743 1771.6 384.166C1771.65 380.27 1771.7 376.375 1771.74 372.48C1771.77 368.719 1771.82 364.958 1771.87 361.198C1771.89 359.764 1771.91 358.331 1771.92 356.898C1771.94 354.887 1771.97 352.876 1772 350.866C1772.01 349.722 1772.02 348.579 1772.04 347.4C1772.32 344.334 1773.02 342.106 1774.32 339.331C1781.42 339.306 1788.52 339.289 1795.62 339.277C1798.04 339.272 1800.46 339.265 1802.88 339.256C1806.35 339.244 1809.81 339.238 1813.28 339.234C1814.37 339.229 1815.46 339.224 1816.58 339.218C1818.08 339.218 1818.08 339.218 1819.61 339.218C1820.94 339.215 1820.94 339.215 1822.3 339.211C1824.32 339.331 1824.32 339.331 1825.32 340.331C1825.42 342.482 1825.44 344.636 1825.44 346.79C1825.45 347.476 1825.45 348.162 1825.45 348.868C1825.45 351.196 1825.45 353.524 1825.45 355.852C1825.45 357.526 1825.45 359.2 1825.46 360.874C1825.46 365.497 1825.46 370.12 1825.46 374.743C1825.46 379.72 1825.47 384.696 1825.47 389.673C1825.48 399.432 1825.48 409.191 1825.48 418.95C1825.48 426.878 1825.49 434.806 1825.49 442.734C1825.5 465.185 1825.5 487.636 1825.5 510.087C1825.5 511.905 1825.5 511.905 1825.5 513.759C1825.5 514.972 1825.5 516.185 1825.5 517.435C1825.5 537.105 1825.51 556.775 1825.52 576.444C1825.54 596.615 1825.55 616.786 1825.54 636.957C1825.54 648.291 1825.55 659.626 1825.56 670.961C1825.57 680.61 1825.57 690.26 1825.56 699.909C1825.56 704.837 1825.56 709.764 1825.57 714.692C1825.58 719.197 1825.57 723.701 1825.57 728.206C1825.56 729.842 1825.57 731.478 1825.57 733.114C1825.58 735.325 1825.57 737.536 1825.56 739.748C1825.56 741.596 1825.56 741.596 1825.57 743.481C1825.32 746.331 1825.32 746.331 1823.32 748.331C1821.27 748.579 1821.27 748.579 1818.71 748.574C1817.28 748.579 1817.28 748.579 1815.82 748.584C1814.79 748.577 1813.76 748.569 1812.69 748.562C1811.1 748.561 1811.1 748.561 1809.49 748.561C1807.25 748.558 1805.01 748.55 1802.77 748.537C1799.33 748.519 1795.89 748.517 1792.46 748.517C1790.28 748.512 1788.11 748.506 1785.94 748.499C1784.91 748.498 1783.87 748.497 1782.81 748.496C1781.85 748.49 1780.9 748.483 1779.92 748.477C1779.07 748.473 1778.23 748.469 1777.36 748.465C1775.32 748.331 1775.32 748.331 1773.32 747.331C1772.24 744.104 1772.16 741.695 1772.11 738.299C1772.09 737.058 1772.07 735.817 1772.05 734.539C1772.03 733.184 1772.02 731.83 1772 730.476C1771.98 729.09 1771.96 727.704 1771.94 726.319C1771.88 722.674 1771.83 719.029 1771.78 715.385C1771.73 711.664 1771.68 707.944 1771.62 704.224C1771.51 696.927 1771.41 689.629 1771.32 682.331C1770.2 683.565 1770.2 683.565 1769.06 684.822C1768.07 685.913 1767.07 687.003 1766.08 688.093C1765.59 688.634 1765.1 689.174 1764.6 689.731C1761.3 693.343 1757.87 696.631 1754.12 699.773C1752.36 701.293 1750.79 702.893 1749.19 704.581C1717.69 736.512 1668.12 757.974 1623.43 758.521C1622.22 758.528 1622.22 758.528 1620.99 758.535C1620.12 758.542 1619.26 758.549 1618.37 758.556C1615.6 758.573 1612.83 758.58 1610.07 758.581C1609.12 758.582 1608.18 758.583 1607.2 758.584C1593.69 758.568 1580.56 758.279 1567.32 755.331C1566.5 755.16 1565.69 754.988 1564.85 754.811C1534.85 748.381 1507.28 735.477 1483.32 716.331C1482.52 715.701 1481.72 715.07 1480.9 714.42C1474.03 708.915 1467.66 703.059 1461.44 696.831C1460.96 696.354 1460.49 695.877 1460 695.385C1451.6 686.942 1444.03 678.176 1437.32 668.331C1436.81 667.605 1436.31 666.878 1435.8 666.129C1412.23 631.58 1400.61 591.943 1399.32 550.331C1399.28 549.346 1399.25 548.361 1399.21 547.346C1397.69 496.882 1412.52 447.197 1445.32 408.331C1446.21 407.255 1447.1 406.178 1447.99 405.101C1458.34 392.703 1469.46 381.153 1482.32 371.331C1482.85 370.913 1483.39 370.495 1483.94 370.064C1552.17 317.043 1656.15 311.767 1741.75 377.05ZM1580.32 383.331C1579.47 383.535 1578.63 383.739 1577.77 383.95C1565.76 386.946 1554.42 390.88 1543.32 396.331C1542.7 396.627 1542.09 396.923 1541.45 397.228C1521.05 407.146 1505.37 420.587 1491.32 438.331C1490.65 439.119 1489.98 439.907 1489.3 440.718C1463.19 471.865 1450.33 516.021 1453.32 556.331C1455.53 577.736 1460.91 597.985 1470.32 617.331C1470.81 618.361 1470.81 618.361 1471.31 619.412C1479.76 636.88 1491.43 651.804 1505.32 665.331C1505.83 665.888 1506.34 666.445 1506.87 667.019C1516.86 677.635 1529.45 685.637 1542.32 692.331C1542.95 692.668 1543.59 693.004 1544.24 693.351C1582.1 713.12 1626.04 713.824 1666.32 701.331C1706.17 688.633 1737.91 662.487 1757.32 625.331C1757.69 624.624 1758.06 623.916 1758.44 623.187C1780.09 581.161 1781.46 532.207 1767.17 487.433C1762.25 473.266 1755.37 459.316 1746.32 447.331C1745.94 446.809 1745.56 446.286 1745.16 445.748C1719.9 411.071 1683.52 388.596 1641.32 381.218C1633.28 380.036 1625.3 379.978 1617.19 380.019C1616.03 380.022 1616.03 380.022 1614.85 380.026C1603.11 380.078 1591.76 380.513 1580.32 383.331Z" fill="#6db64a"></path>
<path d="M3462.8 338.186C3464.16 338.177 3464.16 338.177 3465.54 338.167C3467 338.165 3467 338.165 3468.5 338.164C3469.5 338.16 3470.5 338.157 3471.54 338.154C3473.67 338.148 3475.79 338.146 3477.92 338.146C3481.17 338.144 3484.42 338.126 3487.67 338.107C3489.74 338.104 3491.8 338.102 3493.87 338.101C3494.84 338.094 3495.81 338.087 3496.81 338.079C3507.09 338.114 3507.09 338.114 3511.34 342.347C3514.02 346.401 3515.96 350.648 3517.94 355.082C3518.41 356.111 3518.87 357.141 3519.35 358.201C3524.31 369.211 3529.13 380.282 3533.97 391.346C3539.82 404.721 3545.77 418.042 3551.82 431.332C3558.47 445.967 3565 460.651 3571.43 475.384C3577.12 488.413 3582.93 501.387 3588.82 514.332C3595.47 528.962 3601.99 543.641 3608.42 558.368C3615.04 573.519 3621.83 588.592 3628.67 603.647C3633.56 614.417 3638.39 625.207 3643.11 636.054C3645.07 640.546 3647.07 644.978 3649.32 649.332C3652.23 645.87 3653.91 642.028 3655.65 637.902C3655.97 637.168 3656.28 636.435 3656.61 635.679C3657.64 633.274 3658.67 630.865 3659.69 628.457C3660.41 626.77 3661.14 625.084 3661.86 623.398C3663.33 619.985 3664.79 616.571 3666.25 613.157C3669.08 606.538 3671.95 599.935 3674.82 593.332C3675.87 590.895 3676.93 588.459 3677.98 586.023C3678.25 585.409 3678.52 584.795 3678.79 584.162C3682.24 576.199 3685.68 568.234 3689.13 560.269C3689.46 559.496 3689.8 558.723 3690.14 557.926C3692.53 552.395 3694.92 546.863 3697.32 541.332C3700.04 535.019 3702.77 528.707 3705.5 522.394C3705.84 521.616 3706.18 520.837 3706.52 520.035C3710.32 511.247 3714.13 502.461 3717.94 493.678C3730.25 465.277 3742.53 436.857 3754.72 408.402C3755.12 407.47 3755.12 407.47 3755.52 406.52C3758.84 398.789 3762.15 391.056 3765.45 383.323C3766.84 380.094 3768.23 376.866 3769.61 373.638C3771.46 369.355 3773.27 365.061 3775.06 360.759C3775.94 358.674 3776.83 356.589 3777.71 354.503C3778.29 353.072 3778.29 353.072 3778.89 351.612C3781.02 346.615 3782.93 342.765 3787.32 339.332C3790.35 338.313 3793.08 338.236 3796.27 338.31C3797.74 338.34 3797.74 338.34 3799.24 338.371C3800.82 338.411 3800.82 338.411 3802.42 338.453C3804.05 338.488 3804.05 338.488 3805.7 338.524C3809.16 338.601 3812.61 338.685 3816.07 338.769C3818.41 338.822 3820.75 338.875 3823.09 338.927C3828.83 339.056 3834.57 339.192 3840.32 339.332C3840.74 344.645 3839.25 348.534 3837.08 353.269C3836.74 354.045 3836.39 354.821 3836.04 355.62C3834.89 358.195 3833.73 360.763 3832.57 363.332C3831.75 365.159 3830.93 366.987 3830.12 368.816C3828.84 371.694 3827.56 374.572 3826.27 377.449C3821.97 387.085 3817.76 396.764 3813.56 406.45C3806.71 422.263 3799.82 438.056 3792.88 453.832C3787.29 466.551 3781.72 479.282 3776.21 492.035C3771.86 502.078 3767.5 512.113 3763.13 522.144C3762.77 522.958 3762.42 523.773 3762.05 524.612C3756.03 538.425 3749.98 552.223 3743.91 566.018C3738.67 577.953 3733.46 589.902 3728.29 601.869C3723.67 612.541 3719 623.187 3714.32 633.832C3708.58 646.883 3702.87 659.946 3697.21 673.032C3692.86 683.076 3688.5 693.112 3684.13 703.144C3683.77 703.958 3683.42 704.773 3683.05 705.612C3677.03 719.425 3670.98 733.223 3664.91 747.018C3659.66 758.966 3654.44 770.929 3649.27 782.911C3646.29 789.807 3643.28 796.694 3640.25 803.57C3639.9 804.382 3639.54 805.194 3639.17 806.031C3638.43 807.713 3637.69 809.396 3636.95 811.079C3636.57 811.926 3636.2 812.772 3635.82 813.644C3635.44 814.486 3635.07 815.328 3634.69 816.195C3629.96 826.938 3625.28 837.702 3620.67 848.496C3620.2 849.602 3619.72 850.709 3619.24 851.848C3616.92 857.267 3614.61 862.688 3612.31 868.112C3611.46 870.101 3610.61 872.089 3609.76 874.078C3609.39 874.968 3609.01 875.858 3608.62 876.775C3606.76 881.148 3604.83 885.489 3602.79 889.785C3602.41 890.586 3602.03 891.387 3601.64 892.212C3600.1 894.676 3598.85 895.897 3596.32 897.332C3593.78 897.692 3593.78 897.692 3590.9 897.672C3589.28 897.672 3589.28 897.672 3587.63 897.672C3586.47 897.656 3585.31 897.641 3584.11 897.625C3582.92 897.62 3581.73 897.616 3580.5 897.612C3576.69 897.595 3572.88 897.557 3569.07 897.519C3566.48 897.504 3563.9 897.49 3561.32 897.478C3554.98 897.445 3548.65 897.395 3542.32 897.332C3544.28 891.068 3546.62 885.087 3549.31 879.101C3549.69 878.241 3550.07 877.382 3550.47 876.496C3551.28 874.661 3552.1 872.827 3552.92 870.994C3555.09 866.14 3557.24 861.281 3559.4 856.421C3559.83 855.457 3560.25 854.493 3560.7 853.5C3564.14 845.755 3567.52 837.989 3570.88 830.207C3575.88 818.625 3580.93 807.068 3586 795.519C3586.38 794.663 3586.75 793.808 3587.14 792.926C3591.11 783.9 3595.08 774.875 3599.05 765.851C3600.68 762.135 3602.32 758.417 3603.95 754.7C3605.1 752.093 3606.24 749.487 3607.39 746.881C3608.77 743.747 3610.14 740.61 3611.51 737.47C3612.62 734.905 3613.76 732.363 3614.93 729.822C3615.39 728.801 3615.85 727.779 3616.33 726.726C3616.72 725.885 3617.11 725.045 3617.51 724.179C3619.62 716.727 3618.2 710.747 3615.01 703.89C3614.66 703.102 3614.31 702.314 3613.95 701.502C3612.8 698.917 3611.62 696.343 3610.44 693.769C3609.62 691.943 3608.8 690.117 3607.98 688.29C3605.86 683.557 3603.72 678.833 3601.58 674.11C3599.6 669.747 3597.64 665.375 3595.67 661.003C3593.05 655.165 3590.43 649.329 3587.8 643.496C3583.31 633.56 3578.86 623.608 3574.44 613.644C3574.12 612.92 3573.8 612.195 3573.47 611.449C3572.14 608.458 3570.81 605.466 3569.48 602.475C3565.61 593.729 3561.72 584.987 3557.83 576.245C3556.56 573.386 3555.29 570.528 3554.02 567.669C3550.19 559.046 3546.36 550.424 3542.52 541.802C3533.54 521.6 3524.57 501.39 3515.64 481.162C3509.57 467.419 3503.48 453.684 3497.38 439.957C3496.97 439.03 3496.55 438.103 3496.13 437.148C3491.88 427.598 3487.64 418.048 3483.38 408.501C3478.77 398.149 3474.17 387.792 3469.58 377.431C3468.11 374.12 3466.64 370.81 3465.16 367.502C3463.56 363.892 3461.96 360.279 3460.37 356.662C3459.8 355.373 3459.23 354.086 3458.65 352.8C3457.88 351.073 3457.12 349.339 3456.36 347.605C3455.94 346.65 3455.51 345.696 3455.08 344.712C3454.32 342.332 3454.32 342.332 3455.32 339.332C3458.13 338.392 3459.88 338.2 3462.8 338.186Z" fill="#6db64a"></path>
<path d="M3413.32 342.332C3412.66 345.61 3411.46 348.068 3409.76 350.937C3409.23 351.831 3408.71 352.725 3408.16 353.645C3407.59 354.594 3407.03 355.542 3406.44 356.519C3405.57 357.977 3405.57 357.977 3404.69 359.465C3390.53 383.121 3390.53 383.121 3387.32 386.332C3382.85 386.637 3379.5 385.925 3375.32 384.394C3360.48 379.004 3345.08 380.73 3330.9 387.285C3322.16 391.598 3314.5 396.701 3307.32 403.332C3306.61 403.954 3305.91 404.577 3305.19 405.218C3283.11 425.83 3272.08 459.58 3267.78 488.679C3267.65 489.539 3267.52 490.399 3267.39 491.285C3266.18 499.771 3265.44 508.27 3264.86 516.819C3264.69 519.305 3264.51 521.789 3264.32 524.273C3262.39 550.895 3262.16 577.519 3262.12 604.196C3262.11 610.054 3262.08 615.913 3262.06 621.771C3262 638.404 3261.95 655.036 3261.91 671.669C3261.9 680.911 3261.87 690.153 3261.83 699.394C3261.8 704.267 3261.79 709.139 3261.79 714.011C3261.79 718.567 3261.77 723.122 3261.74 727.678C3261.74 729.351 3261.73 731.024 3261.74 732.697C3261.74 734.972 3261.73 737.247 3261.71 739.522C3261.7 740.796 3261.7 742.071 3261.7 743.384C3261.51 744.843 3261.51 744.843 3261.32 746.332C3258.08 748.485 3257.23 748.581 3253.51 748.575C3252.53 748.578 3251.56 748.581 3250.56 748.584C3249.51 748.577 3248.46 748.569 3247.37 748.562C3246.3 748.562 3245.22 748.561 3244.11 748.561C3241.82 748.558 3239.54 748.55 3237.26 748.537C3233.76 748.519 3230.26 748.517 3226.76 748.517C3224.55 748.512 3222.34 748.506 3220.12 748.5C3219.07 748.498 3218.02 748.497 3216.94 748.496C3215.96 748.49 3214.99 748.483 3213.99 748.477C3213.14 748.473 3212.28 748.469 3211.4 748.465C3209.32 748.332 3209.32 748.332 3207.32 747.332C3206.18 743.408 3206.19 739.577 3206.19 735.515C3206.18 734.838 3206.18 734.162 3206.18 733.465C3206.18 731.195 3206.18 728.925 3206.18 726.654C3206.18 725.012 3206.18 723.37 3206.17 721.727C3206.17 717.21 3206.17 712.693 3206.17 708.176C3206.17 703.307 3206.16 698.437 3206.16 693.567C3206.15 684.025 3206.15 674.484 3206.15 664.942C3206.15 657.189 3206.15 649.436 3206.14 641.683C3206.13 619.714 3206.13 597.745 3206.13 575.775C3206.13 574.59 3206.13 573.406 3206.13 572.185C3206.13 570.999 3206.13 569.813 3206.13 568.591C3206.13 549.357 3206.12 530.122 3206.11 510.888C3206.09 491.15 3206.09 471.412 3206.09 451.674C3206.09 440.588 3206.08 429.502 3206.07 418.415C3206.06 408.979 3206.06 399.542 3206.07 390.106C3206.07 385.289 3206.07 380.472 3206.06 375.656C3206.06 371.249 3206.06 366.843 3206.07 362.436C3206.07 360.839 3206.07 359.242 3206.06 357.646C3206.05 355.48 3206.06 353.314 3206.07 351.149C3206.07 349.944 3206.07 348.74 3206.07 347.499C3206.31 344.367 3206.98 342.153 3208.32 339.332C3238.39 338.043 3238.39 338.043 3251.69 338.707C3252.56 338.75 3253.43 338.793 3254.33 338.837C3260.17 339.187 3260.17 339.187 3261.32 340.332C3261.44 341.957 3261.49 343.588 3261.52 345.219C3261.55 346.78 3261.55 346.78 3261.58 348.373C3261.6 349.505 3261.61 350.638 3261.63 351.804C3261.65 352.957 3261.67 354.11 3261.69 355.298C3261.76 358.996 3261.82 362.695 3261.88 366.394C3261.92 368.895 3261.96 371.395 3262.01 373.896C3262.12 380.041 3262.22 386.186 3262.32 392.332C3262.98 392.332 3263.64 392.332 3264.32 392.332C3265.87 390.447 3267.32 388.553 3268.75 386.582C3273.44 380.33 3278.44 374.52 3283.84 368.872C3284.85 367.821 3285.85 366.765 3286.84 365.706C3318.91 331.661 3371.6 313.387 3413.32 342.332Z" fill="#6db64a"></path>
<path d="M3151.32 341.332C3152.13 343.03 3152.13 343.03 3152.32 345.332C3150.98 348.182 3150.98 348.182 3148.94 351.461C3148.58 352.05 3148.22 352.64 3147.84 353.248C3146.68 355.137 3145.5 357.016 3144.32 358.894C3143.55 360.131 3142.79 361.369 3142.02 362.607C3140.16 365.621 3138.28 368.624 3136.39 371.621C3135.35 373.284 3134.3 374.95 3133.26 376.616C3132.64 377.604 3132.02 378.592 3131.38 379.609C3130.83 380.476 3130.29 381.344 3129.73 382.238C3128.32 384.332 3128.32 384.332 3126.32 386.332C3121.18 387.102 3117.3 385.31 3112.68 383.304C3100.34 378.234 3085.2 381.207 3073.37 386.145C3063.29 390.547 3054.66 396.202 3046.32 403.332C3045.64 403.904 3044.97 404.476 3044.27 405.066C3009.76 436.974 3004.42 493.024 3002.62 536.739C3002.16 548.481 3002 560.229 3001.83 571.978C3001.8 574.036 3001.77 576.094 3001.74 578.151C3001.24 610.567 3001.01 642.985 3000.8 675.404C3000.75 683.284 3000.69 691.165 3000.64 699.045C3000.53 715.14 3000.42 731.236 3000.32 747.332C2997.89 748.542 2996.34 748.465 2993.64 748.477C2992.67 748.483 2991.7 748.49 2990.7 748.496C2989.64 748.497 2988.59 748.498 2987.51 748.5C2985.89 748.505 2985.89 748.505 2984.24 748.51C2981.96 748.515 2979.68 748.517 2977.39 748.517C2973.9 748.519 2970.4 748.537 2966.9 748.556C2964.69 748.559 2962.47 748.561 2960.26 748.562C2958.68 748.573 2958.68 748.573 2957.08 748.584C2956.1 748.581 2955.13 748.578 2954.12 748.575C2953.26 748.576 2952.41 748.577 2951.52 748.579C2949.32 748.332 2949.32 748.332 2946.32 746.332C2945.94 743.481 2945.94 743.481 2945.94 739.748C2945.94 739.06 2945.94 738.373 2945.93 737.664C2945.92 735.338 2945.94 733.011 2945.95 730.685C2945.95 729.009 2945.94 727.333 2945.94 725.658C2945.93 721.035 2945.94 716.412 2945.95 711.79C2945.96 706.812 2945.96 701.833 2945.95 696.855C2945.95 687.096 2945.96 677.337 2945.97 667.578C2945.99 656.225 2945.99 644.872 2945.99 633.519C2945.99 613.271 2946.01 593.022 2946.03 572.774C2946.06 553.102 2946.07 533.431 2946.08 513.759C2946.08 512.548 2946.08 511.336 2946.08 510.088C2946.08 507.647 2946.08 505.206 2946.08 502.766C2946.08 501.562 2946.08 500.358 2946.08 499.118C2946.08 497.917 2946.08 496.716 2946.08 495.479C2946.08 476.765 2946.09 458.05 2946.11 439.336C2946.11 432.541 2946.11 425.746 2946.12 418.95C2946.12 408.174 2946.13 397.398 2946.14 386.621C2946.15 381.694 2946.16 376.766 2946.16 371.838C2946.16 367.335 2946.16 362.832 2946.17 358.329C2946.17 356.692 2946.17 355.055 2946.17 353.419C2946.17 351.209 2946.18 349 2946.18 346.79C2946.19 345.558 2946.19 344.326 2946.19 343.057C2946.32 340.332 2946.32 340.332 2947.32 339.332C2948.8 339.174 2950.28 339.081 2951.77 339.015C2952.69 338.973 2953.61 338.931 2954.56 338.888C2955.56 338.849 2956.55 338.81 2957.57 338.769C2958.57 338.727 2959.58 338.686 2960.62 338.643C2970.97 338.235 2981.22 338.213 2991.57 338.769C2992.32 338.808 2993.07 338.847 2993.85 338.888C2999.19 339.211 2999.19 339.211 3000.32 340.332C3000.43 341.88 3000.48 343.434 3000.51 344.987C3000.52 345.979 3000.54 346.97 3000.56 347.991C3000.57 349.07 3000.58 350.15 3000.6 351.261C3000.62 352.913 3000.62 352.913 3000.65 354.599C3000.71 358.135 3000.76 361.671 3000.82 365.207C3000.88 369.85 3000.96 374.493 3001.03 379.136C3001.05 380.211 3001.06 381.287 3001.08 382.394C3001.09 383.392 3001.11 384.389 3001.13 385.417C3001.14 386.296 3001.15 387.174 3001.16 388.079C3001.23 390.501 3001.23 390.501 3002.32 393.332C3002.66 392.899 3003.01 392.467 3003.37 392.022C3016.89 375.19 3016.89 375.19 3024.32 367.332C3025.15 366.441 3025.99 365.55 3026.85 364.632C3056.14 334.375 3113.21 310.351 3151.32 341.332Z" fill="#6db64a"></path>
<path d="M1258.32 181.332C1260.4 180.957 1260.4 180.957 1263.01 180.959C1263.98 180.953 1264.96 180.947 1265.96 180.94C1267.02 180.95 1268.07 180.959 1269.16 180.968C1270.24 180.968 1271.32 180.967 1272.43 180.967C1274.72 180.969 1277.01 180.979 1279.29 180.995C1282.8 181.019 1286.31 181.016 1289.82 181.009C1292.04 181.015 1294.25 181.022 1296.47 181.031C1297.53 181.03 1298.58 181.029 1299.67 181.028C1300.64 181.038 1301.62 181.047 1302.62 181.057C1303.48 181.062 1304.34 181.066 1305.23 181.071C1307.32 181.332 1307.32 181.332 1309.32 183.332C1309.51 186.38 1309.58 189.337 1309.56 192.386C1309.56 193.34 1309.57 194.295 1309.57 195.278C1309.57 198.514 1309.56 201.749 1309.56 204.984C1309.56 207.312 1309.56 209.64 1309.56 211.968C1309.57 217.719 1309.56 223.469 1309.55 229.22C1309.54 236.105 1309.54 242.989 1309.54 249.874C1309.55 262.58 1309.54 275.287 1309.53 287.994C1309.52 300.58 1309.51 313.166 1309.51 325.752C1309.51 326.534 1309.5 327.316 1309.5 328.121C1309.5 332.091 1309.5 336.061 1309.5 340.031C1309.5 368.17 1309.49 396.31 1309.47 424.449C1309.45 451.791 1309.43 479.133 1309.43 506.475C1309.43 507.317 1309.42 508.159 1309.42 509.027C1309.42 517.487 1309.42 525.946 1309.42 534.405C1309.41 551.639 1309.41 568.873 1309.4 586.106C1309.4 586.899 1309.4 587.691 1309.4 588.508C1309.38 641.449 1309.35 694.39 1309.32 747.332C1306.92 748.531 1305.41 748.465 1302.73 748.477C1301.3 748.486 1301.3 748.486 1299.85 748.496C1298.82 748.497 1297.79 748.498 1296.73 748.5C1295.67 748.503 1294.61 748.506 1293.53 748.51C1291.29 748.515 1289.06 748.517 1286.82 748.517C1283.4 748.519 1279.97 748.537 1276.54 748.556C1274.38 748.559 1272.21 748.561 1270.04 748.562C1269.01 748.569 1267.98 748.576 1266.92 748.584C1265.97 748.581 1265.01 748.578 1264.03 748.575C1262.77 748.577 1262.77 748.577 1261.49 748.579C1259.32 748.332 1259.32 748.332 1256.32 746.332C1256.02 743.261 1255.92 740.391 1255.94 737.317C1255.94 736.367 1255.93 735.416 1255.93 734.437C1255.92 731.217 1255.93 727.996 1255.94 724.776C1255.94 722.458 1255.93 720.14 1255.93 717.822C1255.92 712.097 1255.92 706.372 1255.93 700.647C1255.95 693.793 1255.94 686.939 1255.93 680.085C1255.92 666.654 1255.93 653.224 1255.94 639.793C1255.95 628.04 1255.95 616.286 1255.95 604.532C1255.95 603.754 1255.95 602.975 1255.95 602.173C1255.95 599.013 1255.95 595.853 1255.95 592.693C1255.95 563.025 1255.96 533.358 1255.98 503.69C1256 477.314 1256.01 450.937 1256 424.56C1256 422.867 1256 421.174 1256 419.48C1256 418.643 1256 417.806 1256 416.943C1256 412.729 1256 408.515 1256 404.301C1256 403.47 1256 402.639 1256 401.782C1255.99 379.765 1256 357.747 1256.01 335.729C1256.01 333.361 1256.01 330.992 1256.01 328.624C1256.01 327.053 1256.01 325.482 1256.01 323.911C1256.01 312.942 1256.01 301.974 1256.01 291.006C1256.01 276.872 1256.01 262.739 1256.03 248.606C1256.04 241.786 1256.04 234.967 1256.04 228.147C1256.03 221.913 1256.04 215.679 1256.05 209.445C1256.05 207.181 1256.05 204.917 1256.05 202.654C1256.04 199.593 1256.05 196.533 1256.06 193.472C1256.06 192.579 1256.05 191.686 1256.05 190.766C1256.09 184.674 1256.09 184.674 1258.32 181.332Z" fill="#6db64a"></path>
</svg>